<?xml version="1.0" encoding="UTF-8" standalone="no"?>
<!-- Created with Serif DrawPlus 11, 0, 3, 23 (Feb 25, 14:12:55) (http://www.serif.com) -->
<svg version="1.1" xmlns="http://www.w3.org/2000/svg" xmlns:xlink="http://www.w3.org/1999/xlink" xmlns:inkscape="http://www.inkscape.org/namespaces/inkscape" width="161.117" height="283.539">
	<g id="dp_group001" transform="matrix(1,0,0,1,-475.288,-559.803)">
		<path id="dp_path002" fill="#2801ef" fill-rule="evenodd" fill-opacity="0.215686" stroke="#4c2cf9" stroke-width="0.38" d="M 476.464,775.671 L 545.672,726.081 L 574.801,792.888 L 505.161,842.353 Z "/>
		<path id="dp_path003" fill="#2801ef" fill-rule="evenodd" fill-opacity="0.215686" stroke="#4c2cf9" stroke-width="0.38" d="M 545.672,726.081 L 607.871,717.088 L 636.089,784.217 L 574.803,793.008 Z "/>
		<path id="dp_path004" fill="#2801ef" fill-rule="evenodd" fill-opacity="0.215686" stroke="#4c2cf9" stroke-width="0.38" d="M 566.881,833.807 L 636.088,784.217 L 574.801,792.888 L 505.161,842.353 Z "/>
		<g id="dp_group005">
			<g id="dp_group006">
				<path id="dp_path007" fill="#500185" fill-rule="evenodd" d="M 595.988,728.567 L 598.488,730.632 L 603.487,734.761 L 607.561,717.101 L 590.989,724.437 Z "/>
				<path id="dp_path008" fill="#500185" d="M 506.107,842.475 L 598.488,730.632 L 595.989,728.568 L 503.608,840.411 Z "/>
			</g>
		</g>
		<g id="dp_group009">
			<g id="dp_group010">
				<path id="dp_path011" fill="#d70202" fill-rule="evenodd" d="M 568.552,796.107 L 569.703,797.727 L 570.385,802.12 L 574.8,792.887 L 564.629,794.016 Z "/>
				<path id="dp_path012" fill="#d70202" d="M 505.736,843.164 L 569.704,797.728 L 568.552,796.107 L 504.584,841.543 Z "/>
			</g>
		</g>
		<path id="dp_path013" fill="#2801ef" fill-rule="evenodd" fill-opacity="0.164706" stroke="#4c2cf9" stroke-width="0.662667" d="M 602.231,666.147 L 597.88,570.695 L 564.177,560.335 L 568.579,656.441 Z "/>
		<path id="dp_path014" fill="#2801ef" fill-rule="evenodd" fill-opacity="0.305882" stroke="#4c2cf9" stroke-width="0.662667" d="M 489.116,599.164 L 564.177,560.335 L 568.527,656.244 L 495.172,695.023 Z "/>
		<path id="dp_path015" fill="#2801ef" fill-rule="evenodd" fill-opacity="0.164706" stroke="#4c2cf9" stroke-width="0.662667" d="M 528.825,704.728 L 602.231,666.147 L 568.527,656.244 L 495.172,695.023 Z "/>
		<g id="dp_group016">
			<g id="dp_group017">
				<path id="dp_path018" fill="#500185" fill-rule="evenodd" d="M 586.303,582.16 L 588.803,584.225 L 593.801,588.355 L 597.876,570.695 L 581.304,578.031 Z "/>
				<path id="dp_path019" fill="#500185" d="M 496.421,696.068 L 588.803,584.225 L 586.304,582.161 L 493.923,694.004 Z "/>
			</g>
		</g>
		<g id="dp_group020">
			<g id="dp_group021">
				<path id="dp_path022" fill="#9602d6" fill-rule="evenodd" d="M 559.283,659.827 L 560.216,661.583 L 562.083,665.093 L 568.525,656.039 L 557.416,656.316 Z "/>
				<path id="dp_path023" fill="#9602d6" d="M 495.639,695.913 L 560.216,661.583 L 559.283,659.828 L 494.705,694.159 Z "/>
			</g>
		</g>
		<path id="dp_path024" fill="#2801ef" fill-rule="evenodd" fill-opacity="0.141176" stroke="#4c2cf9" stroke-width="0.662667" d="M 522.767,608.987 L 597.879,570.695 L 564.177,560.335 L 489.116,598.824 Z "/>
		<path id="dp_path025" fill="#2801ef" fill-rule="evenodd" fill-opacity="0.196078" stroke="#4c2cf9" stroke-width="0.662667" d="M 522.82,608.799 L 597.88,570.695 L 602.231,665.877 L 528.875,704.656 Z "/>
		<path id="dp_path026" fill="#2801ef" fill-rule="evenodd" fill-opacity="0.129412" stroke="#4c2cf9" stroke-width="0.509333" d="M 545.673,725.636 L 476.465,775.225 L 537.752,766.555 L 607.393,717.089 Z "/>
		<path id="dp_path027" fill="#2801ef" fill-rule="evenodd" fill-opacity="0.129412" stroke="#4c2cf9" stroke-width="0.509333" d="M 566.883,833.361 L 504.684,842.355 L 476.464,775.225 L 537.752,766.435 Z "/>
		<g id="dp_group028">
			<g id="dp_group029">
				<path id="dp_path030" fill="#d70202" fill-rule="evenodd" d="M 478.16,781.823 L 479.988,781.04 L 484.425,781.303 L 476.335,775.035 L 475.288,785.215 Z "/>
				<path id="dp_path031" fill="#d70202" d="M 506.073,841.963 L 479.988,781.04 L 478.161,781.821 L 504.247,842.744 Z "/>
			</g>
		</g>
		<g id="dp_group032">
			<g id="dp_group033">
				<path id="dp_path034" fill="#d70202" fill-rule="evenodd" d="M 560.023,834.652 L 560.263,836.624 L 558.772,840.812 L 567.049,834.795 L 557.567,830.945 Z "/>
				<path id="dp_path035" fill="#d70202" d="M 505.28,843.34 L 560.263,836.625 L 560.023,834.652 L 505.04,841.367 Z "/>
			</g>
		</g>
		<path id="dp_path036" fill="#2801ef" fill-rule="evenodd" fill-opacity="0.141176" stroke="#4c2cf9" stroke-width="0.662667" d="M 528.879,704.657 L 522.82,608.799 L 489.397,599.172 L 495.228,694.495 Z "/>
		<path id="dp_path037" fill="#2801ef" fill-rule="evenodd" fill-opacity="0.215686" stroke="#4c2cf9" stroke-width="0.509333" d="M 636.089,783.772 L 566.883,833.361 L 537.752,766.555 L 607.393,717.089 Z "/>
		<g id="dp_group038">
			<g id="dp_group039">
				<path id="dp_path040" fill="#9602d6" fill-rule="evenodd" d="M 521.071,701.719 L 520.493,703.621 L 519.339,707.425 L 530.293,705.556 L 522.224,697.915 Z "/>
				<path id="dp_path041" fill="#9602d6" d="M 495.341,695.988 L 520.493,703.621 L 521.069,701.72 L 495.917,694.087 Z "/>
			</g>
		</g>
		<g id="dp_group042">
			<g id="dp_group043">
				<path id="dp_path044" fill="#9602d6" fill-rule="evenodd" d="M 489,609.155 L 490.985,609.035 L 494.953,608.796 L 489.396,599.173 L 485.032,609.393 Z "/>
				<path id="dp_path045" fill="#9602d6" d="M 496.163,694.976 L 490.985,609.035 L 489.001,609.155 L 494.179,695.096 Z "/>
			</g>
		</g>
	</g>
</svg>